<svg xmlns="http://www.w3.org/2000/svg" viewBox="0 0 893.49 288.95"><defs><style>.cls-1{fill:#033159;}.cls-2{fill:#00598f;}.cls-3{fill:#1a1a1a;}</style></defs><g id="Layer_2" data-name="Layer 2"><g id="Layer_1-2" data-name="Layer 1"><path class="cls-1" d="M304.75,124V289H238.93V151.28L185.1,97.44V233.72H122.92L65.79,176.54V289H0V104.32L61.26,79l58.19,58.2V25.36L180.74,0ZM292.92,277.12V135.34l-42.15,17.43V277.12Zm-4.53-152.71L178,14,135.81,31.39,183.37,79l62.87,62.88ZM173.26,221.89V85.61l-42-42V221.89Zm-53.81-8.38V153.88l-61-61L16.36,110.34,54,148,62,156.05l2,2v0ZM54,277.12V164.71L11.83,122.56V277.12Z"/><polygon class="cls-2" points="292.93 135.34 292.93 277.12 250.77 277.12 250.77 152.77 292.93 135.34"/><polygon class="cls-2" points="173.26 85.61 173.26 221.89 131.28 221.89 131.28 165.72 131.28 151.43 131.28 43.6 173.26 85.61"/><polygon class="cls-2" points="53.96 164.71 53.96 277.12 11.83 277.12 11.83 122.56 53.96 164.71"/><path class="cls-3" d="M517.47,224,505.91,125.3,480.14,224H439.26L413.48,125.3,401.93,224H365.49L385.26,78.86H431.7l28,99.76,28-99.76h46.44L553.91,224Z"/><path class="cls-3" d="M686.8,220.84c-6,4-13.77,6-23.1,6-14.45,0-23.78-5.33-28.22-15.78-8,10.45-19.78,15.78-35.33,15.78-21.55,0-34.66-10.89-34.66-29.33,0-24.22,22.44-36.88,67.1-38v-2c0-10-6-14.88-18.22-14.88-11.33,0-24.22,2.89-38.66,8.89l-4.89-22.89A94,94,0,0,1,619.7,115.3c31.33,0,46.89,15.11,46.89,45.1v25.33c0,8.67,2.88,12.89,8.44,12.89,2.89,0,5.33-.67,6.89-2.22ZM632.59,192V173.29c-20.22,1.11-32.22,7.78-32.22,17.33,0,7.33,5.78,11.55,14.44,11.55,6,0,12-2.44,17.78-7.55Z"/><path class="cls-3" d="M782.22,218.62c-11.11,5.55-24,8.22-38.44,8.22-35.77,0-54-19.78-54-53.55,0-34.66,18.66-58,55.32-58a84.28,84.28,0,0,1,36.44,7.78l-5.11,24.66a63.23,63.23,0,0,0-22.22-4.22c-20.44,0-28.88,8.66-28.88,28s8,27.11,26.88,27.11a75.67,75.67,0,0,0,24.89-4.44Z"/><path class="cls-3" d="M889.27,213.28c-13.77,9.11-30.22,13.56-49.32,13.56-33.11,0-51.33-19.78-51.33-51.55,0-38,21.11-60,56-60,30,0,48.88,16.66,48.88,52.44,0,3.33-.22,6.44-.44,9.33H824.39c1.11,14.44,7.78,21.55,26.22,21.55a75.19,75.19,0,0,0,34-8.22Zm-26.66-53.77c-.22-12.66-5.78-19.1-16.66-19.1-11.34,0-18.22,6.44-20.67,19.1Z"/><path d="M366,262v-5.34h23.67V262H381v23.54h-6.35V262Z"/><path d="M402.38,256.67v11.08h11.69V256.67h6.35v28.88h-6.35V273.09H402.38v12.46H396V256.67Z"/><path d="M450.64,256.67V262H435.39v6.19h14v4.93h-14v7.08H451v5.34H429V256.67Z"/><path d="M488.14,256.67a9.29,9.29,0,0,1,3.5.63,8.23,8.23,0,0,1,2.67,1.72,7.58,7.58,0,0,1,1.7,2.52,8.14,8.14,0,0,1,.58,3.1,8.73,8.73,0,0,1-1.07,4.41,6.72,6.72,0,0,1-3.5,2.83V272a5,5,0,0,1,1.94,1,5.71,5.71,0,0,1,1.26,1.58,7.18,7.18,0,0,1,.7,2,18.32,18.32,0,0,1,.31,2.19c0,.45,0,1,.08,1.61s.07,1.26.14,1.9a14.53,14.53,0,0,0,.32,1.85,4.15,4.15,0,0,0,.67,1.47h-6.35a11.14,11.14,0,0,1-.65-3.27c-.08-1.27-.2-2.49-.36-3.64a5.75,5.75,0,0,0-1.38-3.32,4.72,4.72,0,0,0-3.44-1.05h-6.35v11.28h-6.35V256.67Zm-2.27,13.07a4.8,4.8,0,0,0,3.28-1,4,4,0,0,0,1.09-3.15,3.83,3.83,0,0,0-1.09-3.05,4.85,4.85,0,0,0-3.28-1h-7v8.14Z"/><path d="M526.4,256.67V262H511.15v6.19h14v4.93h-14v7.08h15.58v5.34H504.8V256.67Z"/><path d="M540.4,256.67v23.54h14.08v5.34H534.05V256.67Z"/><path d="M567.42,256.67v28.88h-6.35V256.67Z"/><path d="M590.44,256.67l10.8,28.88h-6.6l-2.18-6.43h-10.8l-2.27,6.43H573l10.93-28.88Zm.36,17.72-3.64-10.6h-.08l-3.76,10.6Z"/><path d="M620.37,256.67a18.11,18.11,0,0,1,3.76.36,8.12,8.12,0,0,1,2.92,1.2,5.59,5.59,0,0,1,1.88,2.2,7.83,7.83,0,0,1,.67,3.4,6.25,6.25,0,0,1-1,3.64,7.16,7.16,0,0,1-2.93,2.39,7,7,0,0,1,4,2.69,8,8,0,0,1,1.31,4.63,7.87,7.87,0,0,1-.85,3.78,7.39,7.39,0,0,1-2.28,2.61,10.36,10.36,0,0,1-3.28,1.5,15,15,0,0,1-3.78.48h-14V256.67Zm-.81,11.69a4.53,4.53,0,0,0,2.79-.81,3.06,3.06,0,0,0,1.1-2.63,3.32,3.32,0,0,0-.37-1.66,2.62,2.62,0,0,0-1-1,4,4,0,0,0-1.39-.5,8.85,8.85,0,0,0-1.64-.15h-6v6.76Zm.37,12.26a8,8,0,0,0,1.78-.19,4.4,4.4,0,0,0,1.49-.6,3.21,3.21,0,0,0,1-1.15,4.09,4.09,0,0,0,.38-1.87,3.74,3.74,0,0,0-1.25-3.17,5.4,5.4,0,0,0-3.32-.95h-6.92v7.93Z"/><path d="M644.64,256.67v23.54h14.08v5.34H638.29V256.67Z"/><path d="M686.92,256.67V262H671.66v6.19h14v4.93h-14v7.08h15.58v5.34H665.31V256.67Z"/><path d="M713.69,278.43a4.57,4.57,0,0,0,1.4,1.64,6,6,0,0,0,2,.93,9.75,9.75,0,0,0,2.43.3,11.87,11.87,0,0,0,1.82-.14,6.19,6.19,0,0,0,1.82-.54,3.91,3.91,0,0,0,1.42-1.12,2.82,2.82,0,0,0,.56-1.8,2.54,2.54,0,0,0-.75-1.9,6,6,0,0,0-2-1.21,19.51,19.51,0,0,0-2.75-.85c-1-.24-2.06-.51-3.11-.81a28.26,28.26,0,0,1-3.16-1,10.92,10.92,0,0,1-2.75-1.52,6.79,6.79,0,0,1-2.71-5.7,7.59,7.59,0,0,1,1-3.86,8.35,8.35,0,0,1,2.49-2.73,10.7,10.7,0,0,1,3.48-1.62,14.8,14.8,0,0,1,3.88-.53,18.25,18.25,0,0,1,4.35.51,10.81,10.81,0,0,1,3.7,1.64,8.23,8.23,0,0,1,2.57,2.89,8.89,8.89,0,0,1,1,4.27h-6.15a5.06,5.06,0,0,0-.55-2.15,3.51,3.51,0,0,0-1.23-1.33,5,5,0,0,0-1.76-.69,10.44,10.44,0,0,0-2.16-.2,7.26,7.26,0,0,0-1.54.16,4.42,4.42,0,0,0-1.4.56,3.57,3.57,0,0,0-1,1,3.13,3.13,0,0,0-.08,2.91,2.93,2.93,0,0,0,1.28,1,16.13,16.13,0,0,0,2.63.89c1.11.3,2.58.67,4.38,1.13.54.11,1.29.31,2.25.59a10.55,10.55,0,0,1,2.85,1.35A8.56,8.56,0,0,1,730.3,273a7.08,7.08,0,0,1,1,4,8.89,8.89,0,0,1-.77,3.68,8,8,0,0,1-2.28,2.93,11.06,11.06,0,0,1-3.77,1.92,17.68,17.68,0,0,1-5.19.69,18.39,18.39,0,0,1-4.64-.59,11.63,11.63,0,0,1-4-1.84,9,9,0,0,1-2.73-3.19,9.6,9.6,0,0,1-1-4.62h6.15A5.28,5.28,0,0,0,713.69,278.43Z"/><path d="M737.84,265.22a14.64,14.64,0,0,1,2.79-4.83,13.06,13.06,0,0,1,4.47-3.24,15.87,15.87,0,0,1,12,0,13.08,13.08,0,0,1,4.45,3.24,14.64,14.64,0,0,1,2.79,4.83,18,18,0,0,1,1,6,17.37,17.37,0,0,1-1,5.89,14.16,14.16,0,0,1-2.79,4.75,12.93,12.93,0,0,1-4.45,3.18,16.12,16.12,0,0,1-12,0,12.91,12.91,0,0,1-4.47-3.18,14.16,14.16,0,0,1-2.79-4.75,17.37,17.37,0,0,1-1-5.89A18,18,0,0,1,737.84,265.22Zm5.81,9.55a9.52,9.52,0,0,0,1.35,3.1,7,7,0,0,0,2.43,2.2,8.4,8.4,0,0,0,7.28,0,7,7,0,0,0,2.43-2.2,9.52,9.52,0,0,0,1.35-3.1,14.3,14.3,0,0,0,.43-3.54,15.44,15.44,0,0,0-.43-3.68,9.62,9.62,0,0,0-1.35-3.17,6.76,6.76,0,0,0-2.43-2.23,8.4,8.4,0,0,0-7.28,0,6.76,6.76,0,0,0-2.43,2.23,9.62,9.62,0,0,0-1.35,3.17,15.44,15.44,0,0,0-.43,3.68A14.3,14.3,0,0,0,743.65,274.77Z"/><path d="M793.87,283.35q-3.29,2.85-9.06,2.85t-9.08-2.83q-3.22-2.83-3.22-8.74v-18h6.35v18a13.68,13.68,0,0,0,.2,2.31,4.78,4.78,0,0,0,.85,2,4.62,4.62,0,0,0,1.8,1.41,7.23,7.23,0,0,0,3.1.55c2.26,0,3.83-.51,4.69-1.52a7.23,7.23,0,0,0,1.29-4.75v-18h6.35v18Q797.14,280.5,793.87,283.35Z"/><path d="M821.21,256.67a9.21,9.21,0,0,1,3.5.63,8,8,0,0,1,2.67,1.72,7.43,7.43,0,0,1,1.7,2.52,8.15,8.15,0,0,1,.59,3.1,8.73,8.73,0,0,1-1.07,4.41,6.76,6.76,0,0,1-3.5,2.83V272a5,5,0,0,1,1.94,1,5.5,5.5,0,0,1,1.25,1.58,7.19,7.19,0,0,1,.71,2,16.46,16.46,0,0,1,.3,2.19c0,.45.06,1,.09,1.61s.07,1.26.14,1.9a11.69,11.69,0,0,0,.32,1.85,4.15,4.15,0,0,0,.67,1.47h-6.35a11.14,11.14,0,0,1-.65-3.27c-.08-1.27-.2-2.49-.36-3.64a5.75,5.75,0,0,0-1.38-3.32,4.74,4.74,0,0,0-3.44-1.05H812v11.28h-6.35V256.67ZM819,269.74a4.81,4.81,0,0,0,3.28-1,4,4,0,0,0,1.09-3.15,3.86,3.86,0,0,0-1.09-3.05,4.87,4.87,0,0,0-3.28-1h-7v8.14Z"/><path d="M856.41,264.38a6.36,6.36,0,0,0-1.42-1.6,6.45,6.45,0,0,0-1.92-1.07,6.53,6.53,0,0,0-2.25-.39,7.45,7.45,0,0,0-3.64.83,6.73,6.73,0,0,0-2.42,2.23,9.63,9.63,0,0,0-1.36,3.17,16,16,0,0,0-.42,3.68,14.79,14.79,0,0,0,.42,3.54,9.53,9.53,0,0,0,1.36,3.1,6.93,6.93,0,0,0,2.42,2.2,7.45,7.45,0,0,0,3.64.83,5.86,5.86,0,0,0,4.55-1.78,8.24,8.24,0,0,0,2-4.69h6.15a14.72,14.72,0,0,1-1.26,4.89A11.49,11.49,0,0,1,859.6,283a11.25,11.25,0,0,1-3.88,2.35,14.27,14.27,0,0,1-4.9.81,14.74,14.74,0,0,1-6-1.15,12.73,12.73,0,0,1-4.47-3.18,13.84,13.84,0,0,1-2.79-4.75,17.37,17.37,0,0,1-1-5.89,18,18,0,0,1,1-6,14.3,14.3,0,0,1,2.79-4.83,12.87,12.87,0,0,1,4.47-3.24,15.47,15.47,0,0,1,10.47-.48,12.38,12.38,0,0,1,3.81,2,10.82,10.82,0,0,1,2.77,3.26,11.61,11.61,0,0,1,1.37,4.45h-6.15A5.11,5.11,0,0,0,856.41,264.38Z"/><path d="M892.49,256.67V262H877.24v6.19h14v4.93h-14v7.08h15.57v5.34H870.89V256.67Z"/></g></g></svg>